<svg xmlns="http://www.w3.org/2000/svg" viewBox="0 0 256 256" role="img" aria-labelledby="nudge-app-icon-title nudge-app-icon-desc">
  <title id="nudge-app-icon-title">Nudge app icon</title>
  <desc id="nudge-app-icon-desc">A rounded orange N mark on a warm background.</desc>
  <path fill="#f14f23" d="M79.6 28.4c-24.9 0-38.4 20.7-37.2 54.6.7 21.1 4.8 31.1-3.6 59.8-9.3 31.8.2 63.8 27.1 75 26.2 10.9 46.6-3.8 43.6-32.3-1.4-13.5 2-23.5 11.7-23.8 8.6-.3 15.2 11.1 24.2 25.5 14.2 22.8 31.4 34.8 56.7 31.9 25.8-2.9 37.1-24.7 33.3-57.2-3-26.1-3.3-42.4.9-66.1 6.7-38.3-9.4-67.2-37.1-67.5-25.5-.3-39.5 18.8-39.9 51.3-.3 21.4-5.1 33.7-14.5 35.2-10.1 1.7-18-11.9-27.8-31.1-15.3-29.9-20.6-55.3-37.4-55.3Z" />
</svg>
