<svg xmlns="http://www.w3.org/2000/svg" viewBox="15 4.7 99 48" role="img" aria-labelledby="vesta-logo-long-beta-title vesta-logo-long-beta-desc">
  <title id="vesta-logo-long-beta-title">Vesta beta logo lockup</title>
  <desc id="vesta-logo-long-beta-desc">The Vesta wordmark with a BETA label for staging builds.</desc>
  <style type="text/css">
    .cls-0 {
      fill: #2D424E;
    }

    .cls-1 {
      fill: #ED5A26;
    }

    .cls-2 {
      fill: #FFFFFF;
    }
  </style>
  <path class="cls-0" d="m51.4 43c-3 3-7.1 5.3-15.2 5.3-6.8-0.2-12.2-2.6-15.2-7.7-1.4-2.3-2.3-4.5-2.2-5.7 0.3-1 1.2-2.1 3.2-2.1s2.7 1.1 3.3 1.8c1.4 2.2 3.7 5.3 9.8 5.8 5.3 0.2 8.9-1.6 10.9-4.4l5.3 5 0.1 2z" />
  <path class="cls-1" d="m35.7 9.3c-0.4 0.4-8.5 7.7-9.3 15.9-0.2 2.1 0.2 4 1.1 5.9 1.3 2.7 3.8 4.6 7.9 4.6 4.4 0 8.4-1.9 9.6-6 1.8-5.5-2.8-14.5-8-20.1-0.3-0.3-0.8-0.8-1.3-0.3zm5.4 16.6c-2.5 1.4-3.6 2.8-4.7 5.1l-0.2 0.2c-0.3 0.3-0.5 0.3-0.8-0.2-1.2-2-2.4-3.5-4.6-4.8-0.7-0.4-0.4-0.8 0-1 2.7-1 3.8-2.8 4.7-5.2 0.2-0.4 0.7-0.7 1 0 1 2 2.1 3.7 4.6 5.1 0.4 0.3 0.4 0.6 0 0.8z" />
  <path class="cls-0" d="m53.4 27.9c-0.1-0.3-0.1-0.4-0.1-0.6 0-0.8 0.7-1.5 1.7-1.5 1.1 0 1.6 0.5 1.9 1.3l2.1 5.9 2-6.2c0.3-0.7 0.9-1.1 1.7-1.1 1.2 0 1.9 0.8 1.9 1.5 0 0.2-0.1 0.5-0.2 0.8l-3.5 8.5c-0.4 0.8-0.7 1.1-1.8 1.1s-1.6 0-2.1-1.1l-3.6-8.6zm15.2 5c0.2 1.5 1.5 2.1 2.8 2.1 1.6 0 2.5-0.7 3.2-0.9 0.9-0.3 1.8 0.7 1.8 1.4 0 1.4-2.4 2.2-5 2.2-3.6 0-6.2-2.4-6.2-5.8s2.4-6.2 5.9-6.2c3.3-0.1 5.8 2.4 6 5.5v0.6c-0.1 0.8-0.7 1.1-1.2 1.1h-7.3zm5.2-2.3c0-0.9-0.8-2.1-2.4-2.1s-2.5 0.9-2.7 2.1h5.1zm12-1.2c-0.8-0.4-1.7-0.7-2.5-0.7s-1.4 0.2-1.4 0.7c0 1.5 5.6 0.8 5.7 4.7 0 2.3-1.8 3.7-4.6 3.7-1.8 0-5.2-0.8-5.2-2.3 0-0.6 0.8-1.6 1.5-1.6 0.9 0 1.6 1.1 3.7 1.1 0.9 0 1.4-0.3 1.3-0.8 0-1.4-5.6-0.7-5.9-4.7 0-2.3 1.7-3.9 4.7-3.9 1.5 0 4.4 0.7 4.5 2.2 0 0.7-0.7 1.7-1.4 1.7l-0.4-0.1zm5.3-0.4h-1.3c-0.8 0-1.2-0.6-1.2-1.5 0-0.8 0.5-1.6 1.2-1.6h1.4v-3.3c0-0.9 0.4-1.6 1.7-1.6 1.2 0 1.7 0.5 1.7 1.6v3.1h1.7c0.7 0 1.3 0.5 1.3 1.4s-0.4 1.9-1.3 1.9h-1.7v7.3c0 0.7-0.6 1.2-1.7 1.2s-1.8-0.5-1.8-1.4v-7.1zm19.8 7.3c0 0.7-0.5 1.4-1.5 1.4-0.9 0.1-1.5-0.3-1.8-1.2-0.8 0.9-2 1.3-3.7 1.2-2.8-0.1-5.3-2.3-5.3-5.8s2.4-5.9 5-6.2c1.5-0.1 3 0.2 3.8 1.3 0.4-1 0.8-1.3 1.6-1.3 1.3 0 1.9 0.6 1.8 1.7l0.1 8.9zm-6.3-1.6c1.3 0 2.8-0.9 2.8-2.8 0-1.8-1.1-2.9-2.6-2.9-1.7-0.1-2.7 1.2-2.7 2.8s0.8 2.9 2.5 2.9zm-44-20.2h14.7c2.3 0 4.2 1.8 4.2 4.1s-1.8 4.7-4.4 4.7h-14.5c-2.7 0-4.4-2-4.4-4.3s1.9-4.5 4.4-4.5z" />
  <path class="cls-2" d="m62.1 17.2h1.4c0.6 0 1 0.4 1 1 0 0.2-0.1 0.5-0.3 0.6 0.3 0.2 0.4 0.5 0.4 0.8 0 0.6-0.4 1-1.3 1h-1.2zm0.7 0.6v0.8h0.6c0.3 0 0.4-0.2 0.4-0.4s-0.2-0.4-0.4-0.4h-0.6zm0 1.3v0.9h0.6c0.3 0 0.4-0.2 0.4-0.4s-0.1-0.5-0.4-0.5h-0.6zm2.4-1.9h2.2v0.6h-1.5v0.6h1.4v0.7h-1.3v0.8h1.5v0.7h-2.2l-0.1-3.4zm3.5 0.6h-1v-0.6h2.7v0.6h-1v2.8h-0.7v-2.8zm2.8-0.6h0.7l1.3 3.4h-0.8l-0.2-0.7h-1.1l-0.3 0.7h-0.8l1.2-3.4zm0.1 2.1h0.8l-0.4-1.1-0.4 1.1z" />
</svg>
