<svg xmlns="http://www.w3.org/2000/svg" viewBox="0 0 256 256" role="img" aria-labelledby="vesta-logo-dark-title vesta-logo-dark-desc">
  <title id="vesta-logo-dark-title">Vesta logo for dark surfaces</title>
  <desc id="vesta-logo-dark-desc">An orange Vesta ember mark with a warm light hearth for dark backgrounds.</desc>
  <g transform="translate(-59.6519,-31.2324)">
    <g transform="matrix(1.7664652,0,0,1.7664652,-71.621554,-202.73348)">
      <path
        fill="#ec5c29"
        d="m 142.28728,226.43281 c -10.75786,-1.65243 -19.76579,-8.03254 -24.00309,-17.00074 -7.70875,-16.31563 -1.24475,-36.24872 20.656,-63.6971 5.20129,-6.51882 6.59975,-7.57737 9.16122,-6.93447 2.73501,0.68642 15.71807,16.93672 21.7567,27.23174 6.88418,11.73665 9.63779,20.15238 9.65419,29.50574 0.0153,9.32262 -2.72836,16.44328 -8.60225,22.31718 -6.64934,6.64931 -18.34955,10.15563 -28.62277,8.57765 z m 9.09811,-22.98888 c 1.90984,-3.58676 7.20067,-8.59374 10.97361,-10.38504 1.67301,-0.79429 3.03758,-1.58435 3.03237,-1.7557 -0.005,-0.17131 -1.34262,-0.96572 -2.97204,-1.76536 -1.62944,-0.7996 -4.21751,-2.52646 -5.7512,-3.83742 -3.03812,-2.59692 -7.31858,-9.2707 -8.48945,-13.23614 -0.73758,-2.49807 -0.73758,-2.49807 -1.51429,0.0944 -2.04619,6.82961 -7.46369,13.38649 -13.89051,16.81196 -3.76852,2.0086 -3.76852,2.0086 -0.13335,3.82512 6.30673,3.15148 11.68431,9.44269 13.79505,16.13873 1.01301,3.21363 1.01301,3.21363 2.26196,0.0123 0.68692,-1.76052 1.89645,-4.41694 2.68783,-5.90312 z"
      />
      <path
        fill="#f7f3ec"
        d="M 140.45499,269.46764 C 126.39094,267.82602 112.96308,261.27256 102.65393,251.01878 91.628734,240.0528 86.86117,228.34638 90.81498,221.949 c 2.390285,-3.86756 10.35281,-6.28197 15.31574,-4.64408 2.61587,0.86334 4.34686,2.74647 7.97774,8.67902 8.43887,13.78838 22.77383,20.86376 38.11263,18.81146 13.01947,-1.74199 22.24538,-7.92339 29.62347,-19.84789 4.11421,-6.64942 5.47747,-7.73236 10.16017,-8.07106 6.89037,-0.4984 12.69387,2.875 13.64217,7.92973 0.551,2.93718 -0.46786,6.99066 -3.04189,12.102 -5.66521,11.24964 -15.36721,20.51956 -27.78756,26.55015 -7.0529,3.42446 -12.96856,5.14882 -20.63088,6.01366 -6.05296,0.68317 -7.84625,0.6826 -13.73158,-0.005 z"
      />
    </g>
  </g>
</svg>
