<svg xmlns="http://www.w3.org/2000/svg" viewBox="0 0 158 68" role="img" aria-labelledby="vesta-logo-long-light-title vesta-logo-long-light-desc">
  <title id="vesta-logo-long-light-title">Vesta logo lockup for light surfaces</title>
  <desc id="vesta-logo-long-light-desc">The Vesta ember mark beside a deep ink Vesta wordmark.</desc>
  <style>
    .mark {
      fill: #ec5c29;
    }

    .ink {
      fill: #1a2735;
    }
  </style>
  <path class="mark" d="m34.2 3.7c-0.5-0.4-1.2-0.7-1.9-0.2l-0.4 0.3c-3.8 3.8-11.8 13.3-13.7 23.7-0.7 3.9 0.2 8.3 2.3 11.6 2.4 3.9 6.5 5.6 11.6 5.6 7.3 0 13.7-3.6 14.9-11.1 1.4-8.5-4.8-21-12.8-29.9zm7.1 25.2c-4.3 2.6-5.6 4.1-7.7 8.2-0.7 1.3-0.8 1.3-1.5 0-2.3-4.4-4.3-5.5-7.6-7.9-0.2-0.2-0.2-0.4 0.1-0.5 4-1.7 6-3.6 7.7-8.4 0.5-1.3 0.6-1.3 1.1-0.3 2.4 4.8 3.4 6.1 7.8 8.5 0.3 0.1 0.3 0.3 0.1 0.4z" />
  <path class="ink" d="m33 52.5c-6.8 0-12.7-2.9-16.3-8.9-1.8-3.6-6.8-4.7-9.7-1.9-1.7 1.7-0.7 3.8-0.2 5.2 2 5.3 8.5 17.5 26.4 17.5 10.2 0 17.9-3.7 22.9-10.6 0.5-0.6 0.4-0.9-0.1-1.3l-7.2-7.1c-0.4-0.3-0.7 0-1.1 0.5-2.7 3.6-7.8 6.6-14.7 6.6z" />
  <path class="ink" d="m59.6 32.6c-0.7-2.2 0.9-3.6 2.5-3.6s2.7 0.6 3.2 2.1l3.3 9.4 3.2-9.4c0.5-1.5 1.6-2.1 2.9-2.1 1.8-0.1 3.5 1.2 2.7 3.5l-5.7 13.7c-0.5 1.4-1.3 1.9-3.3 1.9-2 0.1-2.6-0.7-3-1.6l-5.8-13.9z" />
  <path class="ink" d="m83.7 40.4c0.3 2 2 3.3 4.4 3.3s3.9-1.3 5.1-1.6c1.8-0.1 3.4 2 2.3 3.7-1.2 1.7-4.2 2.5-7.5 2.5-5.6 0-9.9-3.9-9.9-9.6 0-5.4 4.1-9.8 9.5-9.8 5 0 9.5 3.8 9.4 9.5 0 1.4-0.7 2-2.3 2h-11zm7.8-3.5c-0.3-1.9-1.6-3.4-3.9-3.4s-3.7 1.7-4 3.4h7.9z" />
  <path class="ink" d="m98.9 42.5c1.2-1 2.3-0.5 3.2 0 3.4 1.7 5.8 1.4 5.8-0.1 0-2.6-9.2-1-9.2-7.6 0-4.2 4-6 7.3-6 2.4 0 7.3 1.1 7.3 3.8 0 1.1-0.9 2.3-2 2.3-1.7 0.1-2.6-1.3-5.4-1.3-1 0-1.7 0.4-1.7 1 0 2.5 9.4 1.1 9.4 7.5 0 4.2-3.6 6.2-7.9 6.2-3.1 0-7.7-1.3-7.8-3.5-0.1-1 0.3-1.9 1-2.3z" />
  <path class="ink" d="m118.5 34.2h-1.9c-1.4 0-2.2-1-2.2-2.3v-0.5c0.1-1.6 1-2.2 2.4-2.2h1.7v-5.3c0-1.3 1.1-2.3 2.7-2.3s2.8 0.9 2.8 2.3v5.3h2.3c1.4 0 2.4 0.7 2.4 2.2v0.8c0 1-0.9 2-1.9 2h-2.8v11.8c0 1.2-1 2.2-2.3 2.2-2 0.2-3.2-0.9-3.2-2.2v-11.8z" />
  <path class="ink" d="m140.6 29.6c0.9 0.4 1.6 1 2.5 1.7 0.1-1.4 1.1-2.3 2.5-2.3 1.3-0.1 2.8 1.1 2.8 2.5v14c0 1.5-1 2.7-2.8 2.7-1.2 0-2.1-0.6-2.5-2-1.3 1.4-3.4 2.1-5 2.1-5.1 0.1-9.1-3.9-9.1-9.6 0-5.4 3.7-9.9 9.4-9.8 0.6 0 1.5 0.3 2.2 0.7zm-1.6 13.7c2-0.3 4.1-1.8 4.1-4.6 0-2.7-1.9-4.5-4-4.5-2.4-0.1-4.1 1.8-4.1 4.5 0 2.3 1.7 4.8 4 4.6z" />
</svg>
